<svg width="124" height="62" viewBox="0 0 124 62" fill="none" xmlns="http://www.w3.org/2000/svg">
<path d="M42.0001 62L58 62V20L42 18L42.0001 62Z" fill="white"/>
<path d="M82 62H66V20L82 18L82 62Z" fill="white"/>
<path d="M18 62H34V16L18 10V62Z" fill="white"/>
<path d="M106 62H90V16L106 10V62Z" fill="white"/>
<path d="M10 5.99999V62H0C0.166667 47 0 14.8091 0 5.99999C0 -2 10 -1.99999 10 5.99999Z" fill="white"/>
<path d="M124 5.99999V62H114C114.167 47 114 14.8091 114 5.99999C114 -1.99999 124 -1.99999 124 5.99999Z" fill="white"/>
</svg>
