<svg width="332" height="201" viewBox="0 0 332 201" fill="none" xmlns="http://www.w3.org/2000/svg">
<path d="M3.36036 200.808H0V189.91H3.50923C4.56555 189.91 5.46944 190.128 6.22091 190.564C6.97238 190.997 7.54839 191.62 7.94894 192.432C8.34949 193.241 8.54977 194.21 8.54977 195.338C8.54977 196.473 8.34772 197.45 7.94363 198.27C7.53953 199.086 6.95112 199.714 6.17838 200.154C5.40564 200.59 4.4663 200.808 3.36036 200.808ZM1.31862 199.638H3.27528C4.17563 199.638 4.92179 199.464 5.51375 199.116C6.10571 198.768 6.54702 198.274 6.83769 197.631C7.12835 196.989 7.27368 196.225 7.27368 195.338C7.27368 194.458 7.13012 193.701 6.843 193.065C6.55588 192.427 6.12698 191.937 5.55628 191.597C4.98559 191.253 4.27488 191.08 3.42416 191.08H1.31862V199.638Z" fill="white"/>
<path d="M11.5103 200.808V189.91H18.0821V191.08H12.8289V194.763H17.7418V195.934H12.8289V199.638H18.1672V200.808H11.5103Z" fill="white"/>
<path d="M27.1625 192.634C27.0987 192.095 26.84 191.677 26.3862 191.379C25.9325 191.08 25.376 190.931 24.7167 190.931C24.2346 190.931 23.8128 191.01 23.4512 191.166C23.0932 191.322 22.8132 191.536 22.6112 191.81C22.4127 192.083 22.3134 192.393 22.3134 192.741C22.3134 193.032 22.3825 193.282 22.5208 193.491C22.6626 193.697 22.8433 193.869 23.0631 194.007C23.2829 194.142 23.5133 194.254 23.7543 194.343C23.9954 194.428 24.2169 194.497 24.4189 194.55L25.5249 194.848C25.8085 194.923 26.1239 195.026 26.4713 195.157C26.8222 195.288 27.1572 195.467 27.4762 195.694C27.7988 195.918 28.0646 196.205 28.2738 196.556C28.4829 196.908 28.5875 197.339 28.5875 197.85C28.5875 198.439 28.4333 198.971 28.1249 199.446C27.8201 199.921 27.3734 200.299 26.785 200.58C26.2001 200.86 25.4894 201 24.6529 201C23.8731 201 23.1978 200.874 22.6271 200.622C22.06 200.37 21.6133 200.019 21.2872 199.568C20.9647 199.118 20.7821 198.595 20.7396 197.999H22.1007C22.1362 198.41 22.2744 198.751 22.5154 199.02C22.76 199.286 23.0684 199.485 23.4406 199.616C23.8163 199.744 24.2204 199.808 24.6529 199.808C25.1562 199.808 25.6082 199.726 26.0087 199.563C26.4093 199.396 26.7265 199.166 26.9605 198.871C27.1944 198.573 27.3114 198.226 27.3114 197.828C27.3114 197.466 27.2104 197.172 27.0083 196.945C26.8063 196.718 26.5404 196.533 26.2108 196.391C25.8811 196.25 25.5249 196.125 25.1421 196.019L23.8022 195.636C22.9514 195.391 22.278 195.042 21.7817 194.587C21.2854 194.133 21.0373 193.539 21.0373 192.805C21.0373 192.194 21.2021 191.662 21.5318 191.208C21.865 190.751 22.3116 190.396 22.8717 190.144C23.4353 189.888 24.0645 189.761 24.7592 189.761C25.4611 189.761 26.0849 189.887 26.6308 190.139C27.1767 190.387 27.6092 190.727 27.9282 191.16C28.2507 191.593 28.4209 192.085 28.4386 192.634H27.1625Z" fill="white"/>
<path d="M32.8228 189.91V200.808H31.5041V189.91H32.8228Z" fill="white"/>
<path d="M43.6591 193.316C43.5421 192.957 43.3879 192.636 43.1965 192.352C43.0087 192.065 42.7836 191.82 42.5213 191.618C42.2625 191.416 41.9683 191.261 41.6386 191.155C41.309 191.049 40.9474 190.995 40.554 190.995C39.9088 190.995 39.3222 191.162 38.794 191.496C38.2659 191.829 37.8458 192.32 37.5339 192.97C37.222 193.619 37.066 194.415 37.066 195.359C37.066 196.303 37.2237 197.099 37.5392 197.748C37.8547 198.398 38.2818 198.889 38.8206 199.223C39.3594 199.556 39.9656 199.723 40.639 199.723C41.2629 199.723 41.8123 199.59 42.2873 199.324C42.7658 199.054 43.138 198.674 43.4039 198.185C43.6733 197.692 43.808 197.112 43.808 196.445L44.2121 196.53H40.9368V195.359H45.0841V196.53C45.0841 197.427 44.8927 198.208 44.5098 198.871C44.1305 199.535 43.6059 200.049 42.936 200.415C42.2696 200.776 41.5039 200.957 40.639 200.957C39.6749 200.957 38.8277 200.73 38.0975 200.276C37.3708 199.822 36.8037 199.176 36.3961 198.339C35.992 197.502 35.7899 196.509 35.7899 195.359C35.7899 194.497 35.9051 193.722 36.1355 193.034C36.3695 192.342 36.6991 191.753 37.1245 191.267C37.5499 190.781 38.0532 190.408 38.6345 190.149C39.2158 189.89 39.8557 189.761 40.554 189.761C41.1282 189.761 41.6635 189.848 42.1597 190.021C42.6595 190.192 43.1044 190.435 43.4943 190.751C43.8877 191.063 44.2156 191.437 44.4779 191.873C44.7402 192.306 44.921 192.787 45.0203 193.316H43.6591Z" fill="white"/>
<path d="M56.7259 189.91V200.808H55.4499L49.5161 192.251H49.4097V200.808H48.0911V189.91H49.3672L55.3223 198.488H55.4286V189.91H56.7259Z" fill="white"/>
<path d="M72.925 197.701C72.4961 197.701 72.1045 197.596 71.75 197.387C71.3955 197.174 71.1119 196.89 70.8993 196.535C70.6901 196.18 70.5856 195.788 70.5856 195.359C70.5856 194.926 70.6901 194.534 70.8993 194.183C71.1119 193.828 71.3955 193.546 71.75 193.337C72.1045 193.124 72.4961 193.018 72.925 193.018C73.3575 193.018 73.7492 193.124 74.1001 193.337C74.4546 193.546 74.7364 193.828 74.9455 194.183C75.1582 194.534 75.2645 194.926 75.2645 195.359C75.2645 195.788 75.1582 196.18 74.9455 196.535C74.7364 196.89 74.4546 197.174 74.1001 197.387C73.7492 197.596 73.3575 197.701 72.925 197.701Z" fill="white"/>
<path d="M90.4414 189.91V200.808H89.1228V189.91H90.4414Z" fill="white"/>
<path d="M102.469 189.91V200.808H101.193L95.2589 192.251H95.1526V200.808H93.834V189.91H95.11L101.065 198.488H101.171V189.91H102.469Z" fill="white"/>
<path d="M111.811 192.634C111.747 192.095 111.488 191.677 111.035 191.379C110.581 191.08 110.025 190.931 109.365 190.931C108.883 190.931 108.461 191.01 108.1 191.166C107.742 191.322 107.462 191.536 107.26 191.81C107.061 192.083 106.962 192.393 106.962 192.741C106.962 193.032 107.031 193.282 107.169 193.491C107.311 193.697 107.492 193.869 107.712 194.007C107.931 194.142 108.162 194.254 108.403 194.343C108.644 194.428 108.865 194.497 109.067 194.55L110.173 194.848C110.457 194.923 110.772 195.026 111.12 195.157C111.471 195.288 111.806 195.467 112.125 195.694C112.447 195.918 112.713 196.205 112.922 196.556C113.131 196.908 113.236 197.339 113.236 197.85C113.236 198.439 113.082 198.971 112.773 199.446C112.469 199.921 112.022 200.299 111.434 200.58C110.849 200.86 110.138 201 109.301 201C108.522 201 107.846 200.874 107.276 200.622C106.708 200.37 106.262 200.019 105.936 199.568C105.613 199.118 105.431 198.595 105.388 197.999H106.749C106.785 198.41 106.923 198.751 107.164 199.02C107.409 199.286 107.717 199.485 108.089 199.616C108.465 199.744 108.869 199.808 109.301 199.808C109.805 199.808 110.257 199.726 110.657 199.563C111.058 199.396 111.375 199.166 111.609 198.871C111.843 198.573 111.96 198.226 111.96 197.828C111.96 197.466 111.859 197.172 111.657 196.945C111.455 196.718 111.189 196.533 110.859 196.391C110.53 196.25 110.173 196.125 109.791 196.019L108.451 195.636C107.6 195.391 106.926 195.042 106.43 194.587C105.934 194.133 105.686 193.539 105.686 192.805C105.686 192.194 105.851 191.662 106.18 191.208C106.514 190.751 106.96 190.396 107.52 190.144C108.084 189.888 108.713 189.761 109.408 189.761C110.11 189.761 110.733 189.887 111.279 190.139C111.825 190.387 112.258 190.727 112.577 191.16C112.899 191.593 113.069 192.085 113.087 192.634H111.811Z" fill="white"/>
<path d="M115.557 191.08V189.91H123.724V191.08H120.3V200.808H118.981V191.08H115.557Z" fill="white"/>
<path d="M125.682 200.808H124.3L128.298 189.91H129.66L133.658 200.808H132.275L129.021 191.634H128.936L125.682 200.808ZM126.193 196.551H131.765V197.722H126.193V196.551Z" fill="white"/>
<path d="M136.103 200.808V189.91H137.421V199.638H142.483V200.808H136.103Z" fill="white"/>
<path d="M145.273 200.808V189.91H146.592V199.638H151.654V200.808H145.273Z" fill="white"/>
<path d="M167.256 197.701C166.827 197.701 166.436 197.596 166.081 197.387C165.727 197.174 165.443 196.89 165.23 196.535C165.021 196.18 164.917 195.788 164.917 195.359C164.917 194.926 165.021 194.534 165.23 194.183C165.443 193.828 165.727 193.546 166.081 193.337C166.436 193.124 166.827 193.018 167.256 193.018C167.689 193.018 168.08 193.124 168.431 193.337C168.786 193.546 169.067 193.828 169.277 194.183C169.489 194.534 169.596 194.926 169.596 195.359C169.596 195.788 169.489 196.18 169.277 196.535C169.067 196.89 168.786 197.174 168.431 197.387C168.08 197.596 167.689 197.701 167.256 197.701Z" fill="white"/>
<path d="M189.409 192.634C189.345 192.095 189.086 191.677 188.633 191.379C188.179 191.08 187.622 190.931 186.963 190.931C186.481 190.931 186.059 191.01 185.698 191.166C185.34 191.322 185.06 191.536 184.858 191.81C184.659 192.083 184.56 192.393 184.56 192.741C184.56 193.032 184.629 193.282 184.767 193.491C184.909 193.697 185.09 193.869 185.31 194.007C185.529 194.142 185.76 194.254 186.001 194.343C186.242 194.428 186.463 194.497 186.665 194.55L187.771 194.848C188.055 194.923 188.37 195.026 188.718 195.157C189.069 195.288 189.404 195.467 189.723 195.694C190.045 195.918 190.311 196.205 190.52 196.556C190.729 196.908 190.834 197.339 190.834 197.85C190.834 198.439 190.68 198.971 190.371 199.446C190.066 199.921 189.62 200.299 189.031 200.58C188.447 200.86 187.736 201 186.899 201C186.12 201 185.444 200.874 184.874 200.622C184.306 200.37 183.86 200.019 183.534 199.568C183.211 199.118 183.029 198.595 182.986 197.999H184.347C184.383 198.41 184.521 198.751 184.762 199.02C185.006 199.286 185.315 199.485 185.687 199.616C186.063 199.744 186.467 199.808 186.899 199.808C187.403 199.808 187.855 199.726 188.255 199.563C188.656 199.396 188.973 199.166 189.207 198.871C189.441 198.573 189.558 198.226 189.558 197.828C189.558 197.466 189.457 197.172 189.255 196.945C189.053 196.718 188.787 196.533 188.457 196.391C188.128 196.25 187.771 196.125 187.388 196.019L186.049 195.636C185.198 195.391 184.524 195.042 184.028 194.587C183.532 194.133 183.284 193.539 183.284 192.805C183.284 192.194 183.449 191.662 183.778 191.208C184.111 190.751 184.558 190.396 185.118 190.144C185.682 189.888 186.311 189.761 187.006 189.761C187.708 189.761 188.331 189.887 188.877 190.139C189.423 190.387 189.856 190.727 190.175 191.16C190.497 191.593 190.667 192.085 190.685 192.634H189.409Z" fill="white"/>
<path d="M193.751 200.808V189.91H200.322V191.08H195.069V194.763H199.982V195.934H195.069V199.638H200.407V200.808H193.751Z" fill="white"/>
<path d="M203.448 200.808V189.91H207.127C207.978 189.91 208.676 190.055 209.222 190.346C209.768 190.633 210.172 191.029 210.434 191.533C210.697 192.037 210.828 192.61 210.828 193.252C210.828 193.894 210.697 194.463 210.434 194.96C210.172 195.457 209.77 195.847 209.227 196.131C208.685 196.411 207.992 196.551 207.148 196.551H204.171V195.359H207.106C207.687 195.359 208.155 195.274 208.51 195.104C208.868 194.933 209.126 194.692 209.286 194.38C209.449 194.064 209.53 193.688 209.53 193.252C209.53 192.815 209.449 192.434 209.286 192.108C209.123 191.781 208.862 191.529 208.504 191.352C208.146 191.171 207.673 191.08 207.085 191.08H204.766V200.808H203.448ZM208.573 195.913L211.253 200.808H209.722L207.085 195.913H208.573Z" fill="white"/>
<path d="M213.972 189.91L217.204 199.084H217.332L220.565 189.91H221.947L217.949 200.808H216.588L212.589 189.91H213.972Z" fill="white"/>
<path d="M225.711 189.91V200.808H224.392V189.91H225.711Z" fill="white"/>
<path d="M237.866 193.316H236.547C236.469 192.936 236.333 192.602 236.138 192.315C235.946 192.028 235.712 191.787 235.436 191.591C235.163 191.393 234.86 191.244 234.527 191.144C234.193 191.045 233.846 190.995 233.484 190.995C232.825 190.995 232.228 191.162 231.693 191.496C231.161 191.829 230.737 192.32 230.422 192.97C230.11 193.619 229.954 194.415 229.954 195.359C229.954 196.303 230.11 197.099 230.422 197.748C230.737 198.398 231.161 198.889 231.693 199.223C232.228 199.556 232.825 199.723 233.484 199.723C233.846 199.723 234.193 199.673 234.527 199.574C234.86 199.474 235.163 199.327 235.436 199.132C235.712 198.933 235.946 198.69 236.138 198.403C236.333 198.112 236.469 197.779 236.547 197.403H237.866C237.766 197.96 237.586 198.458 237.323 198.898C237.061 199.338 236.735 199.712 236.345 200.021C235.955 200.326 235.517 200.558 235.032 200.718C234.55 200.878 234.034 200.957 233.484 200.957C232.556 200.957 231.73 200.73 231.007 200.276C230.284 199.822 229.715 199.176 229.3 198.339C228.885 197.502 228.678 196.509 228.678 195.359C228.678 194.21 228.885 193.216 229.3 192.379C229.715 191.542 230.284 190.896 231.007 190.442C231.73 189.988 232.556 189.761 233.484 189.761C234.034 189.761 234.55 189.841 235.032 190C235.517 190.16 235.955 190.394 236.345 190.703C236.735 191.008 237.061 191.38 237.323 191.82C237.586 192.257 237.766 192.755 237.866 193.316Z" fill="white"/>
<path d="M240.745 200.808V189.91H247.317V191.08H242.064V194.763H246.977V195.934H242.064V199.638H247.402V200.808H240.745Z" fill="white"/>
<path d="M263.254 197.701C262.825 197.701 262.434 197.596 262.079 197.387C261.725 197.174 261.441 196.89 261.228 196.535C261.019 196.18 260.915 195.788 260.915 195.359C260.915 194.926 261.019 194.534 261.228 194.183C261.441 193.828 261.725 193.546 262.079 193.337C262.434 193.124 262.825 193.018 263.254 193.018C263.687 193.018 264.078 193.124 264.429 193.337C264.784 193.546 265.065 193.828 265.275 194.183C265.487 194.534 265.594 194.926 265.594 195.359C265.594 195.788 265.487 196.18 265.275 196.535C265.065 196.89 264.784 197.174 264.429 197.387C264.078 197.596 263.687 197.701 263.254 197.701Z" fill="white"/>
<path d="M279.452 200.808V189.91H283.131C283.982 189.91 284.68 190.055 285.226 190.346C285.772 190.633 286.176 191.029 286.438 191.533C286.701 192.037 286.832 192.61 286.832 193.252C286.832 193.894 286.701 194.463 286.438 194.96C286.176 195.457 285.774 195.847 285.231 196.131C284.689 196.411 283.996 196.551 283.153 196.551H280.175V195.359H283.11C283.691 195.359 284.159 195.274 284.514 195.104C284.872 194.933 285.13 194.692 285.29 194.38C285.453 194.064 285.535 193.688 285.535 193.252C285.535 192.815 285.453 192.434 285.29 192.108C285.127 191.781 284.866 191.529 284.508 191.352C284.15 191.171 283.677 191.08 283.089 191.08H280.77V200.808H279.452ZM284.577 195.913L287.257 200.808H285.726L283.089 195.913H284.577Z" fill="white"/>
<path d="M289.778 200.808V189.91H296.35V191.08H291.096V194.763H296.009V195.934H291.096V199.638H296.435V200.808H289.778Z" fill="white"/>
<path d="M299.475 200.808V189.91H303.154C304.009 189.91 304.707 190.064 305.249 190.373C305.795 190.678 306.199 191.091 306.462 191.613C306.724 192.134 306.855 192.716 306.855 193.358C306.855 194 306.724 194.584 306.462 195.109C306.203 195.634 305.802 196.053 305.26 196.365C304.718 196.674 304.023 196.828 303.176 196.828H300.538V195.657H303.133C303.718 195.657 304.188 195.556 304.542 195.354C304.897 195.152 305.154 194.878 305.313 194.534C305.476 194.187 305.558 193.795 305.558 193.358C305.558 192.922 305.476 192.532 305.313 192.187C305.154 191.843 304.895 191.574 304.537 191.379C304.179 191.18 303.704 191.08 303.112 191.08H300.794V200.808H299.475Z" fill="white"/>
<path d="M309.063 200.808H307.681L311.679 189.91H313.04L317.039 200.808H315.656L312.402 191.634H312.317L309.063 200.808ZM309.574 196.551H315.146V197.722H309.574V196.551Z" fill="white"/>
<path d="M320.802 189.91V200.808H319.483V189.91H320.802Z" fill="white"/>
<path d="M324.195 200.808V189.91H327.874C328.725 189.91 329.423 190.055 329.969 190.346C330.515 190.633 330.919 191.029 331.181 191.533C331.443 192.037 331.575 192.61 331.575 193.252C331.575 193.894 331.443 194.463 331.181 194.96C330.919 195.457 330.517 195.847 329.974 196.131C329.432 196.411 328.739 196.551 327.895 196.551H324.918V195.359H327.853C328.434 195.359 328.902 195.274 329.256 195.104C329.614 194.933 329.873 194.692 330.033 194.38C330.196 194.064 330.277 193.688 330.277 193.252C330.277 192.815 330.196 192.434 330.033 192.108C329.87 191.781 329.609 191.529 329.251 191.352C328.893 191.171 328.42 191.08 327.831 191.08H325.513V200.808H324.195ZM329.32 195.913L332 200.808H330.469L327.831 195.913H329.32Z" fill="white"/>
<path d="M145.913 61.9409L161.884 61.9409V19.9809L145.913 17.9829L145.913 61.9409Z" fill="white"/>
<path d="M185.84 61.9409H169.87V19.9809L185.84 17.9829L185.84 61.9409Z" fill="white"/>
<path d="M121.957 61.9409H137.928V15.9848L121.957 9.99048V61.9409Z" fill="white"/>
<path d="M209.797 61.9409H193.826V15.9848L209.797 9.99048V61.9409Z" fill="white"/>
<path d="M113.971 5.99427V61.9409H103.99C104.156 46.9552 103.99 14.795 103.99 5.99427C103.99 -1.99809 113.971 -1.99809 113.971 5.99427Z" fill="white"/>
<path d="M227.764 5.99427V61.9409H217.782C217.949 46.9552 217.782 14.795 217.782 5.99428C217.782 -1.99808 227.764 -1.99808 227.764 5.99427Z" fill="white"/>
<path d="M39.3417 92.3084C39.3417 91.8167 39.4353 91.3543 39.6224 90.9211C39.8096 90.4762 40.0669 90.0957 40.3945 89.7796C40.722 89.4518 41.1022 89.1942 41.535 89.0069C41.9795 88.8079 42.4474 88.7083 42.9387 88.7083H56.5896C57.0809 88.7083 57.5429 88.8079 57.9757 89.0069C58.4202 89.1942 58.8062 89.4518 59.1338 89.7796C59.4613 90.0957 59.7186 90.4762 59.9058 90.9211C60.0929 91.3543 60.1865 91.8167 60.1865 92.3084V95.5573H56.5896V92.3084H42.9387V110.291H56.5896V104.18H49.7641V100.58H60.1865V110.291C60.1865 110.783 60.0929 111.251 59.9058 111.696C59.7186 112.129 59.4613 112.51 59.1338 112.838C58.8062 113.165 58.4202 113.423 57.9757 113.61C57.5429 113.798 57.0809 113.891 56.5896 113.891H42.9387C42.4474 113.891 41.9795 113.798 41.535 113.61C41.1022 113.423 40.722 113.165 40.3945 112.838C40.0669 112.51 39.8096 112.129 39.6224 111.696C39.4353 111.251 39.3417 110.783 39.3417 110.291V92.3084Z" fill="white"/>
<path d="M89.6451 110.291C89.6451 110.783 89.5516 111.251 89.3644 111.696C89.1772 112.129 88.9199 112.51 88.5924 112.838C88.2648 113.165 87.8788 113.423 87.4343 113.61C87.0015 113.798 86.5395 113.891 86.0482 113.891H71.6779C71.1866 113.891 70.7187 113.798 70.2742 113.61C69.8414 113.423 69.4612 113.165 69.1337 112.838C68.8061 112.51 68.5488 112.129 68.3616 111.696C68.1745 111.251 68.0809 110.783 68.0809 110.291V92.3084C68.0809 91.8167 68.1745 91.3543 68.3616 90.9211C68.5488 90.4762 68.8061 90.0957 69.1337 89.7796C69.4612 89.4518 69.8414 89.1942 70.2742 89.0069C70.7187 88.8079 71.1866 88.7083 71.6779 88.7083H86.0482C86.5395 88.7083 87.0015 88.8079 87.4343 89.0069C87.8788 89.1942 88.2648 89.4518 88.5924 89.7796C88.9199 90.0957 89.1772 90.4762 89.3644 90.9211C89.5516 91.3543 89.6451 91.8167 89.6451 92.3084V110.291ZM71.6779 92.3084V110.291H86.0482V92.3084H71.6779Z" fill="white"/>
<path d="M102.593 113.891L95.3989 88.7083H98.9958L104.576 108.746L110.138 88.7083H113.735L119.297 108.746L124.876 88.7083H128.473L121.279 113.891H117.332L111.945 95.0129L106.541 113.891H102.593Z" fill="white"/>
<path d="M134.227 88.7083H152.563V92.3084H137.824V99.5086H150.405V103.109H137.824V110.291H152.563V113.891H134.227V88.7083Z" fill="white"/>
<path d="M179.267 97.6998C179.267 101.212 177.769 103.214 174.775 103.706L179.512 113.891H175.529L170.862 103.829H162.984V113.891H159.387V88.7083H173.161C177.231 88.7083 179.267 90.7513 179.267 94.8373V97.6998ZM162.984 100.229H172.968C173.927 100.229 174.617 100.018 175.038 99.5964C175.459 99.1749 175.67 98.4842 175.67 97.5242V95.0129C175.67 94.0529 175.459 93.3621 175.038 92.9406C174.617 92.5192 173.927 92.3084 172.968 92.3084H162.984V100.229Z" fill="white"/>
<path d="M198.933 92.3084C198.933 91.8167 199.027 91.3543 199.214 90.9211C199.401 90.4762 199.658 90.0957 199.986 89.7796C200.313 89.4518 200.694 89.1942 201.126 89.0069C201.571 88.8079 202.039 88.7083 202.53 88.7083H216.181C216.672 88.7083 217.134 88.8079 217.567 89.0069C218.012 89.1942 218.398 89.4518 218.725 89.7796C219.053 90.0957 219.31 90.4762 219.497 90.9211C219.684 91.3543 219.778 91.8167 219.778 92.3084V95.5573H216.181V92.3084H202.53V110.291H216.181V104.18H209.356V100.58H219.778V110.291C219.778 110.783 219.684 111.251 219.497 111.696C219.31 112.129 219.053 112.51 218.725 112.838C218.398 113.165 218.012 113.423 217.567 113.61C217.134 113.798 216.672 113.891 216.181 113.891H202.53C202.039 113.891 201.571 113.798 201.126 113.61C200.694 113.423 200.313 113.165 199.986 112.838C199.658 112.51 199.401 112.129 199.214 111.696C199.027 111.251 198.933 110.783 198.933 110.291V92.3084Z" fill="white"/>
<path d="M238.814 88.7083L248.517 113.891H244.92L242.692 108.096H231.34L229.111 113.891H225.514L235.217 88.7083H238.814ZM232.708 104.496H241.306L237.024 93.3972L232.708 104.496Z" fill="white"/>
<path d="M249.235 88.7083H269.361V92.3084H261.096V113.891H257.499V92.3084H249.235V88.7083Z" fill="white"/>
<path d="M275.114 88.7083H293.45V92.3084H278.711V99.5086H291.292V103.109H278.711V110.291H293.45V113.891H275.114V88.7083Z" fill="white"/>
<path d="M66.0557 134.865L74.1416 155.851H71.1441L69.2871 151.022H59.8268L57.9699 155.851H54.9724L63.0583 134.865H66.0557ZM60.9673 148.022H68.132L64.5643 138.773L60.9673 148.022Z" fill="white"/>
<path d="M79.5353 134.865H82.5327V152.851H94.508V134.865H97.5055V152.851C97.5055 153.261 97.4275 153.651 97.2715 154.022C97.1155 154.383 96.9011 154.7 96.6281 154.973C96.3552 155.246 96.0335 155.461 95.6631 155.617C95.3024 155.773 94.9174 155.851 94.508 155.851H82.5327C82.1233 155.851 81.7334 155.773 81.363 155.617C81.0023 155.461 80.6855 155.246 80.4126 154.973C80.1396 154.7 79.9252 154.383 79.7692 154.022C79.6132 153.651 79.5353 153.261 79.5353 152.851V134.865Z" fill="white"/>
<path d="M102.899 134.865H119.67V137.866H112.783V155.851H109.786V137.866H102.899V134.865Z" fill="white"/>
<path d="M143.034 152.851C143.034 153.261 142.956 153.651 142.8 154.022C142.644 154.383 142.43 154.7 142.157 154.973C141.884 155.246 141.562 155.461 141.192 155.617C140.831 155.773 140.446 155.851 140.037 155.851H128.062C127.652 155.851 127.262 155.773 126.892 155.617C126.531 155.461 126.214 155.246 125.941 154.973C125.668 154.7 125.454 154.383 125.298 154.022C125.142 153.651 125.064 153.261 125.064 152.851V137.866C125.064 137.456 125.142 137.07 125.298 136.709C125.454 136.339 125.668 136.022 125.941 135.758C126.214 135.485 126.531 135.27 126.892 135.114C127.262 134.948 127.652 134.865 128.062 134.865H140.037C140.446 134.865 140.831 134.948 141.192 135.114C141.562 135.27 141.884 135.485 142.157 135.758C142.43 136.022 142.644 136.339 142.8 136.709C142.956 137.07 143.034 137.456 143.034 137.866V152.851ZM128.062 137.866V152.851H140.037V137.866H128.062Z" fill="white"/>
<path d="M161.047 155.851L153.224 140.47V155.851H150.226V134.865H153.502L161.485 150.671L169.483 134.865H172.744V155.851H169.761V140.47L161.938 155.851H161.047Z" fill="white"/>
<path d="M189.236 134.865L197.321 155.851H194.324L192.467 151.022H183.007L181.15 155.851H178.152L186.238 134.865H189.236ZM184.147 148.022H191.312L187.744 138.773L184.147 148.022Z" fill="white"/>
<path d="M198.519 134.865H215.29V137.866H208.403V155.851H205.406V137.866H198.519V134.865Z" fill="white"/>
<path d="M223.681 134.865V155.851H220.684V134.865H223.681Z" fill="white"/>
<path d="M248.843 152.851C248.843 153.261 248.765 153.651 248.609 154.022C248.454 154.383 248.239 154.7 247.966 154.973C247.693 155.246 247.372 155.461 247.001 155.617C246.64 155.773 246.255 155.851 245.846 155.851H233.871C233.461 155.851 233.071 155.773 232.701 155.617C232.34 155.461 232.023 155.246 231.751 154.973C231.478 154.7 231.263 154.383 231.107 154.022C230.951 153.651 230.873 153.261 230.873 152.851V137.866C230.873 137.456 230.951 137.07 231.107 136.709C231.263 136.339 231.478 136.022 231.751 135.758C232.023 135.485 232.34 135.27 232.701 135.114C233.071 134.948 233.461 134.865 233.871 134.865H245.846C246.255 134.865 246.64 134.948 247.001 135.114C247.372 135.27 247.693 135.485 247.966 135.758C248.239 136.022 248.454 136.339 248.609 136.709C248.765 137.07 248.843 137.456 248.843 137.866V152.851ZM233.871 137.866V152.851H245.846V137.866H233.871Z" fill="white"/>
<path d="M259.033 155.851H256.036V134.865H259.033L271.637 151.139V134.865H274.635V155.851H271.637L259.033 139.578V155.851Z" fill="white"/>
<path d="M16.1496 122.883H315.604V124.881H16.1496V122.883Z" fill="white"/>
<path d="M16.1496 77.9257H315.604V79.9238H16.1496V77.9257Z" fill="white"/>
</svg>
